<?xml version="1.0" encoding="utf-8"?>
<!-- Generator: Adobe Illustrator 19.0.0, SVG Export Plug-In . SVG Version: 6.00 Build 0)  -->
<svg version="1.1" xmlns="http://www.w3.org/2000/svg" xmlns:xlink="http://www.w3.org/1999/xlink" x="0px" y="0px"
	 viewBox="0 0 519.2 514.6" style="enable-background:new 0 0 519.2 514.6;" xml:space="preserve">
<style type="text/css">
	.st0{display:none;}
	.st1{display:inline;fill:#010101;}
	.st2{display:inline;}
	.st3{fill:#010101;}
</style>
<g id="Layer_1" class="st0">
	<path class="st1" d="M506.7,368.8L383.9,246l49.4-49.4l68.6-68.7c18.8-18.8,18.8-49.2,0-67.9l-45.3-45.3
		c-9.4-9.4-21.7-14.1-34-14.1s-24.6,4.7-34,14.1l-68.6,68.6l-49.4,49.4L147.9,10c-6.2-6.2-14.3-9.3-22.4-9.3S109.2,3.8,103,10
		L13.3,99.7c-12.4,12.4-12.4,32.5,0,44.9l122.8,122.8l-113,113L4.3,487.8c-2.7,15.6,11.2,26.9,24.6,24.6l107.4-18.8l112.9-113
		l122.8,122.8c5.9,6,14,9.3,22.4,9.3c8.1,0,16.2-3.1,22.4-9.3l89.7-89.7C519.1,401.3,519.1,381.2,506.7,368.8L506.7,368.8z
		 M406.4,32.4c10-8.7,22.1-8.7,32.7,0l45.3,45.2c10.2,10.7,10.4,22.2,0,32.7l-48,48l-77.9-77.9C358.3,80.4,406.4,32.4,406.4,32.4z
		 M25.9,122.3l99.5-99.5l62.9,62.9l-44,44c-3.3,3.3-5.1,6.2-2,9.3l11.3,11.3c3.1,3.1,6.5,1,9.3-2l44-44l46.1,46l-99.5,99.5
		L25.9,122.3z M115,470.5l-82.5,13.7l10.4-88.4L339.7,99l77.9,77.9L125.9,468.7L115,470.5z M394.8,490.8L266.9,363l99.5-99.5
		l46.1,46.1l-44.1,44.2c-3.6,3.3-5.1,6.2-2,9.3l11.3,11.3c3.1,3.1,5.8,1.2,9.3-2l44.2-44.2l62.9,62.9L394.8,490.8z"/>
</g>
<g id="Layer_2" class="st0">
	<path class="st1" d="M492.6,261.7L392,217.8V84.5c0-17.5-9.3-33.1-23.4-39.2l-96-41.9c-8.1-3.6-17.1-3.6-25.3,0l-96,41.9
		c-14.1,6.2-23.4,21.8-23.4,39.2v133.3L27.4,261.7C13.3,267.8,4,283.4,4,300.9v121.9c0,15.8,7.7,30.4,19.9,37.5l96,47.9
		c10.1,5.9,22.1,5.9,32.2,0L260,453.4l107.9,54.8c10.1,5.9,22.1,5.9,32.2,0l96-47.9c12.2-7.1,19.9-21.6,19.9-37.5v-122
		C516,283.4,506.7,267.8,492.6,261.7L492.6,261.7z M24.5,432.9V311.4l101.2,51.1v120.8L24.5,432.9z M249.5,432.9l-103.2,50.4V362.5
		l103.2-51.1V432.9z M250.5,284.4L136,341.6L20.5,283.4v5.8L139,235.3l103.6,47.1l7.9,3.8V284.4z M249.8,262.5L199,239.8L148.5,216
		V93.9L249.8,146V262.5z M144.5,66.9v5.9L260,22.3l115.5,50.4v-5.8L260,125.1L144.5,66.9z M371.4,94.9V218L321,239.8l-50.8,21.7V146
		 M373.8,483.2l-103.2-50.4V311.4l103.2,51.1L373.8,483.2z M495.5,432.9l-101.2,50.4V362.5l101.2-51.1V432.9z M499.5,283.4
		L384,341.6l-114.5-56.3v1.8l7.9-3.8l105.6-47l116.5,52.9V283.4z"/>
	<polygon id="XMLID_73_" class="st2" points="371.4,218 270.2,261.5 270.2,146 371.4,94.9 	"/>
	<polygon id="XMLID_74_" class="st2" points="249.5,432.9 146.3,483.2 146.3,362.5 249.5,311.4 	"/>
	<polygon id="XMLID_75_" class="st2" points="495.5,434.5 394.3,483.2 394.3,362.5 495.5,311.4 	"/>
</g>
<g id="Layer_4" class="st0">
	<path id="XMLID_60_" class="st1" d="M443.6,367.6c-7.2,0-14.1,1.4-23.7,6.3l-37.2-62c16.1-16.3,24.2-34.4,24.2-54.5
		s-8.1-38.3-24.2-54.5l37.2-62c9.6,5,16.5,6.3,23.7,6.3c40.6,0,73.5-32.9,73.5-73.5S484.2,0,443.6,0c-34.2,0-62.7,23.5-70.9,58.1
		H146.9C138.7,23.5,110.3,0,76,0C35.4,0,2.5,32.9,2.5,73.5c0,34.2,23.5,62.7,58.1,70.9v225.7C26,378.4,2.5,406.9,2.5,441.1
		c0,40.6,32.9,73.5,73.5,73.5c34.2,0,62.7-23.5,70.9-58.1h225.7c8.2,34.7,36.7,58.1,70.9,58.1c40.6,0,73.5-32.9,73.5-73.5
		C517.1,400.5,484.2,367.6,443.6,367.6z M89.4,370.2V144.4c30.7-6.7,50.9-26.8,57.5-57.5h225.7c3.3,17.7,9.6,29.1,21.6,41.2
		l-37.2,62c-9.6-5-16.5-6.3-23.7-6.3c-40.6,0-73.5,32.9-73.5,73.5s32.9,73.5,73.5,73.5c7.2,0,14.1-1.4,23.7-6.3l37.2,62
		c-11.9,12.1-18.3,23.5-21.6,41.2H146.9C140.3,396.9,120.2,376.8,89.4,370.2z M333.3,303.3c-25.4,0-46-20.6-46-46s20.6-46,46-46
		c25.4,0,46,20.6,46,46S358.7,303.3,333.3,303.3z M443.6,27.5c25.4,0,46,20.6,46,46s-20.6,46-46,46s-46-20.6-46-46
		S418.2,27.5,443.6,27.5z M30,73.5c0-25.4,20.6-46,46-46s46,20.6,46,46s-20.6,46-46,46S30,98.9,30,73.5z M76,487.1
		c-25.4,0-46-20.6-46-46c0-25.4,20.6-46,46-46s46,20.6,46,46C122,466.4,101.4,487.1,76,487.1z M443.6,487.1c-25.4,0-46-20.6-46-46
		c0-25.4,20.6-46,46-46s46,20.6,46,46C489.6,466.4,469,487.1,443.6,487.1z"/>
</g>
<g id="Layer_5">
	<path class="st3" d="M512.6,437.4c3.6,0,6.6-3,6.6-6.6v-13.2c0-3.6-3-6.6-6.6-6.6H6.6c-3.6,0-6.6,3-6.6,6.6v13.2
		c0,3.6,3,6.6,6.6,6.6h41.3v48.8H6.6c-3.6,0-6.6,3-6.6,6.6v13.2c0,3.6,3,6.6,6.6,6.6h506c3.6,0,6.6-3,6.6-6.6v-13.2
		c0-3.6-3-6.6-6.6-6.6h-41.3v-48.8H512.6z M127.3,486.2H74.4v-48.8h52.9V486.2z M365.5,486.2H153.8v-48.8h211.7V486.2z M444.8,486.2
		h-52.9v-48.8h52.9V486.2z"/>
	<path class="st3" d="M506,185.2H391.9v-172C391.9,6,386,0,378.7,0H140.5c-7.3,0-13.2,6-13.2,13.2v172H13.2c-7.3,0-13.2,6-13.2,13.2
		v182.7c0,7.3,6,13.2,13.2,13.2H506c7.3,0,13.2-6,13.2-13.2V198.5C519.2,191.2,513.3,185.2,506,185.2z M359.5,211.7h52.9v51.5
		l-26.5-8.8l-26.5,8.8V211.7z M286.1,26.5V78l-26.5-8.8L233.1,78V26.5H286.1z M153.8,26.5h52.9v88.2l52.9-17.6l52.9,17.6V26.5h52.9
		v158.8H153.8V26.5z M159.8,211.7v51.5l-26.5-8.8l-26.5,8.8v-51.5H159.8z M26.5,211.7h53.9v88.2l52.9-17.6l52.9,17.6v-88.2h60.2V368
		H26.5V211.7z M492.8,368H272.8V211.7H333v88.2l52.9-17.6l52.9,17.6v-88.2h53.9V368z"/>
</g>
</svg>
