<?xml version="1.0" encoding="utf-8"?>
<!-- Generator: Adobe Illustrator 19.0.0, SVG Export Plug-In . SVG Version: 6.00 Build 0)  -->
<svg version="1.1" xmlns="http://www.w3.org/2000/svg" xmlns:xlink="http://www.w3.org/1999/xlink" x="0px" y="0px"
	 viewBox="-157.5 96.5 601 601" style="enable-background:new -157.5 96.5 601 601;" xml:space="preserve">
<g id="Layer_2">
	<path d="M392.7,133.6h-498.2c-27.5,0-49.8,22.3-49.8,49.8v298.9c0,27.5,22.3,49.8,49.8,49.8H93.8l-24.9,99.6H-5.9
		c-9.1,0-16.6,7.5-16.6,16.6s7.5,16.6,16.6,16.6H293c9.1,0,16.6-7.5,16.6-16.6s-7.5-16.6-16.6-16.6h-74.7l-24.9-99.6h199.3
		c27.5,0,49.8-22.3,49.8-49.8V183.5C442.5,156,420.2,133.6,392.7,133.6z M103.1,631.8l16.6-66.4h47.7l16.6,66.4H103.1z M409.3,482.4
		c0,9.1-7.5,16.6-16.6,16.6h-498.2c-9.1,0-16.6-7.5-16.6-16.6V183.5c0-9.1,7.5-16.6,16.6-16.6h498.2c9.1,0,16.6,7.5,16.6,16.6V482.4
		z"/>
</g>
<g id="Layer_3">
	<path d="M338.1,349.9l-11.7-35.1c-2.3-6.8-8.7-11.4-15.9-11.4H200.7c-7.2,0-13.6,4.6-15.9,11.4l-17.6,52.9
		c-0.6,1.7-0.9,3.5-0.9,5.3v92.2c0,9.2,7.5,16.7,16.7,16.7h139.5c37,0,67-30,67-67C389.5,383.3,367.5,356.9,338.1,349.9z
		 M261.1,314.5h49.3c2.4,0,4.5,1.5,5.3,3.8l9.9,29.8c-1,0-2.1-0.2-3.2-0.2c-19.8,0-37.6,8.7-49.8,22.3h-11.6V314.5z M195.4,318.3
		c0.8-2.3,2.9-3.8,5.3-3.8H250v55.8h-72L195.4,318.3z M183,470.8c-3.1,0-5.6-2.5-5.6-5.6v-83.7h87.2c-5.7,9.9-9,21.3-9,33.5
		c0,23.3,11.9,43.8,30,55.8H183z M322.5,470.8c-30.8,0-55.8-25-55.8-55.8s25-55.8,55.8-55.8s55.8,25,55.8,55.8
		S353.3,470.8,322.5,470.8z M345.1,393.4c-1.1-1.1-2.8-1.1-3.9,0l-24.4,24.2l-10.6-10.7c-1.1-1.1-2.8-1.1-3.9,0l-6.5,6.5
		c-1.1,1.1-1.1,2.8,0,3.9l19,19.1c1.1,1.1,2.8,1.1,3.9,0l32.9-32.6c1.1-1.1,1.1-2.8,0-3.9L345.1,393.4L345.1,393.4z"/>
</g>
<g id="Layer_6">
	<path d="M58.3,235.9L42,187c-1-3-3.3-4.9-5.8-4.9H-10c-2.4,0-4.6,1.7-5.7,4.5l-19,48.9c-2.1,5.4,1,11.8,5.7,11.8h21
		c-7.8,9-12.8,21.7-12.8,30.7c0,5.9,2.2,11.4,5.9,15.9c2.2,2.7,5.9,4.1,9.7,4.1h34c3.8,0,7.4-1.4,9.7-4.1c3.7-4.5,5.9-9.9,5.9-15.9
		c0-9-5-21.7-12.8-30.7h21C57,247.3,60.1,241.3,58.3,235.9z M37,278c0,4-1.5,7.9-4.3,11.2c-0.8,0.9-2.4,1.5-4.1,1.5h-34
		c-1.7,0-3.3-0.6-4.1-1.5c-2.8-3.4-4.3-7.2-4.3-11.2c0-9.4,7-24,15.9-30.7h18.8C30,254,37,268.5,37,278z M50,240h-76.7
		c-1,0-1.7-1-1.3-1.9c0,0,0,0,0-0.1l19-48.8h44.1l16.3,48.9v0C51.7,239.1,51,240,50,240z"/>
</g>
<g id="Layer_5">
	<path d="M24.5,314.1L12.6,326c-0.3,0.3-0.9,0.3-1.2,0l-11.9-11.9c-0.3-0.3-0.3-0.9,0-1.2l0.5-0.5c0.3-0.3,0.9-0.3,1.2,0l9.5,9.6
		v-20.3c0-0.5,0.4-0.9,0.9-0.9h0.7c0.5,0,0.9,0.4,0.9,0.9v20.3l9.5-9.6c0.3-0.3,0.9-0.3,1.2,0l0.5,0.5
		C24.8,313.2,24.8,313.7,24.5,314.1z"/>
</g>
<g id="Layer_4">
	<path d="M124.4,358.6l-18.2-38.2c-1-2.1-3-3.3-5.2-3.3C100.8,317.1,12,329,12,329s-88.8-11.9-89.1-11.9c-2.2,0-4.2,1.3-5.2,3.3
		l-18.2,38.2c-1.6,3.4,0.1,7.5,3.6,8.5l18.4,5.5v78.5c0,5.5,3.5,10.2,8.5,11.5l76.3,20.1c4.8,1.3,8.8,0.6,11,0l76.4-20.1
		c5-1.3,8.5-6.1,8.5-11.5v-78.5l18.4-5.5C124.3,366.1,126,362.1,124.4,358.6z M-73.8,329.5l67.2,9l-21.2,37.1l-59.4-17.9
		L-73.8,329.5L-73.8,329.5z M-67.1,376.1c43.5,13.1,40.6,12.3,41.8,12.3c2,0,3.9-1.1,4.9-2.9l26.7-46.6v131.7l-73.4-19.3V376.1z
		 M91.1,451.3l-73.4,19.3V338.8l26.7,46.6c1.1,1.9,3,2.9,4.9,2.9c1.2,0-1.9,0.8,41.8-12.3V451.3z M51.9,375.5l-21.2-37.1l67.2-9
		l13.4,28.2L51.9,375.5z"/>
</g>
</svg>
