<?xml version="1.0" encoding="utf-8"?>
<!-- Generator: Adobe Illustrator 19.0.0, SVG Export Plug-In . SVG Version: 6.00 Build 0)  -->
<svg version="1.1" xmlns="http://www.w3.org/2000/svg" xmlns:xlink="http://www.w3.org/1999/xlink" x="0px" y="0px"
	 viewBox="-157.5 96.5 601 601" style="enable-background:new -157.5 96.5 601 601;" xml:space="preserve">
<style type="text/css">
	.st0{fill:#010101;}
</style>
<g id="Layer_3">
	<g>
		<path d="M353.5,146.1l-39-39c-6.8-6.8-16-10.6-25.5-10.6H159.4c-19.9,0-36.1,16.2-36.1,36.1v36.1H63.1
			c-19.9,0-36.1,16.2-36.1,36.1v240.8c0,19.9,16.2,36.1,36.1,36.1h168.6c19.9,0,36.1-16.2,36.1-36.1v-36.1H328
			c19.9,0,36.1-16.2,36.1-36.1V171.7C364.1,162.1,360.3,152.9,353.5,146.1z M291.9,120.9c2.1,0.5,4.1,1.6,5.6,3.2l39,39
			c1.5,1.5,2.6,3.5,3.2,5.6h-47.8V120.9z M243.7,445.6c0,6.6-5.4,12-12,12H63.1c-6.6,0-12-5.4-12-12V204.9c0-6.6,5.4-12,12-12h60.2
			v180.6c0,19.9,16.2,36.1,36.1,36.1h84.3V445.6z M340,373.4c0,6.6-5.4,12-12,12H159.4c-6.6,0-12-5.4-12-12V132.6
			c0-6.6,5.4-12,12-12h108.4v54.2c0,9.9,8.1,18.1,18.1,18.1H340V373.4z"/>
		<path d="M139.2,168.7h-76c-19.9,0-36.1,16.2-36.1,36.1V241h-60.2c-19.9,0-36.1,16.2-36.1,36.1v240.8c0,19.9,16.2,36.1,36.1,36.1
			h168.6c19.9,0,36.1-16.2,36.1-36.1v-36.1h60.2c19.9,0,36.1-16.2,36.1-36.1v-52.4c0-9.6-118,3.7-124.9-2.4 M147.5,517.9
			c0,6.6-5.4,12-12,12H-33.1c-6.6,0-12-5.4-12-12V277.1c0-6.6,5.4-12,12-12h60.2v180.6c0,19.9,16.2,36.1,36.1,36.1h84.3V517.9z
			 M243.9,397.5v48.2c0,6.6-5.4,12-12,12H63.3c-6.6,0-12-5.4-12-12V204.9c0-6.6,5.4-12,12-12h70.8l4.4,199.4"/>
	</g>
</g>
<g id="Layer_7">
	<path d="M-109.5,697.5h505c26.5,0,48-21.5,48-48v-132c0-6.6-5.4-12-12-12h-8c-6.6,0-12,5.4-12,12v132c0,8.8-7.2,16-16,16h-505
		c-8.8,0-16-7.2-16-16v-132c0-6.6-5.4-12-12-12h-8c-6.6,0-12,5.4-12,12v132C-157.5,676-136,697.5-109.5,697.5z"/>
</g>
<g id="Layer_4">
	<path d="M161.9,592.2l-12.2,12.2l0-29.9c0-2.5-2-4.5-4.5-4.5h-4.5c-2.5,0-4.5,2-4.5,4.5l0,29.9l-12.2-12.2c-1.8-1.8-4.6-1.8-6.3,0
		l-3.2,3.2c-1.8,1.8-1.8,4.6,0,6.3l25.2,25.2c1.8,1.8,4.6,1.8,6.3,0l25.2-25.2c1.8-1.8,1.8-4.6,0-6.3l-3.2-3.2
		C166.5,590.4,163.7,590.4,161.9,592.2z"/>
</g>
<g id="Layer_6">
	<g id="Layer_4_1_">
		<path id="XMLID_60_" class="st0" d="M300.2,323.2c-2.2,0-4.3,0.4-7.2,1.9l-11.2-18.7c4.9-4.9,7.3-10.4,7.3-16.5
			c0-6.1-2.4-11.6-7.3-16.5l11.2-18.7c2.9,1.5,5,1.9,7.2,1.9c12.3,0,22.2-9.9,22.2-22.2c0-12.3-9.9-22.3-22.2-22.3
			c-10.3,0-19,7.1-21.4,17.6h-68.3C208,219.1,199.4,212,189,212c-12.3,0-22.2,9.9-22.2,22.2c0,10.3,7.1,19,17.6,21.4v68.3
			c-10.5,2.5-17.6,11.1-17.6,21.5c0,12.3,9.9,22.2,22.2,22.2c10.3,0,19-7.1,21.4-17.6h68.3c2.5,10.5,11.1,17.6,21.4,17.6
			c12.3,0,22.2-9.9,22.2-22.2C322.4,333.1,312.4,323.2,300.2,323.2z M193.1,324v-68.3c9.3-2,15.4-8.1,17.4-17.4h68.3
			c1,5.4,2.9,8.8,6.5,12.5L274,269.5c-2.9-1.5-5-1.9-7.2-1.9c-12.3,0-22.2,9.9-22.2,22.2c0,12.3,9.9,22.2,22.2,22.2
			c2.2,0,4.3-0.4,7.2-1.9l11.2,18.7c-3.6,3.7-5.5,7.1-6.5,12.5h-68.3C208.4,332,202.4,325.9,193.1,324z M266.8,303.7
			c-7.7,0-13.9-6.2-13.9-13.9c0-7.7,6.2-13.9,13.9-13.9s13.9,6.2,13.9,13.9C280.7,297.5,274.5,303.7,266.8,303.7z M300.2,220.3
			c7.7,0,13.9,6.2,13.9,13.9c0,7.7-6.2,13.9-13.9,13.9s-13.9-6.2-13.9-13.9C286.3,226.5,292.5,220.3,300.2,220.3z M175.1,234.2
			c0-7.7,6.2-13.9,13.9-13.9c7.7,0,13.9,6.2,13.9,13.9c0,7.7-6.2,13.9-13.9,13.9C181.3,248.1,175.1,241.9,175.1,234.2z M189,359.3
			c-7.7,0-13.9-6.2-13.9-13.9c0-7.7,6.2-13.9,13.9-13.9c7.7,0,13.9,6.2,13.9,13.9C202.9,353,196.7,359.3,189,359.3z M300.2,359.3
			c-7.7,0-13.9-6.2-13.9-13.9c0-7.7,6.2-13.9,13.9-13.9s13.9,6.2,13.9,13.9C314.1,353,307.8,359.3,300.2,359.3z"/>
	</g>
</g>
<g id="Layer_5">
	<g id="Layer_2">
		<path class="st0" d="M225.4,389.7l-82.4-2.8v-63c0-5.3,0.3-25.7-4-27.5l-2.2-3.3c-2.5-1.1-3.9-1.5-6.4-0.4l-16,7
			c-4.3,1.9-7.1,6.6-7.1,11.9V352l-30.6,13.3c-4.3,1.9-7.1,6.6-7.1,11.9v37.1c0,4.8,2.3,9.2,6.1,11.4l29.2,14.6
			c3.1,1.8,6.7,1.8,9.8,0l32.8-16.7l32.8,16.7c3.1,1.8,6.7,1.8,9.8,0l29.2-14.6c3.7-2.2,6.1-6.6,6.1-11.4 M75.9,417.4v-36.9
			l30.8,15.5v36.7L75.9,417.4z M144.3,417.4L113,432.8V396l31.4-15.5V417.4z M144.6,372.3l-34.8,17.4L74.7,372v1.8l36-16.4
			l31.5,14.3l2.4,1.2V372.3z M144.4,365.6l-15.4-6.9l-15.4-7.2v-37.1l30.8,15.8V365.6z M144.4,322.3l-32-16.1v1.8l32.8-14.3
			 M182.1,432.7l-31.4-15.3v-25.9l31.4,4.5V432.7z M219.1,417.4l-30.8,15.3V396l30.8-6.4V417.4z"/>
		<polygon id="XMLID_74_" points="145.8,417.6 112.3,434 112.3,394.1 144.6,378.9 		"/>
		<polygon id="XMLID_75_" points="219.1,417.9 188.4,432.7 188.4,396 219.1,389.7 		"/>
	</g>
</g>
<g id="Layer_8">
	<g id="Layer_6_1_">
		<path d="M47.3,310.5H24.8c-1.6,0-3.1,1.1-3.9,3l-12.8,33c-1.4,3.6,0.7,8,3.9,8h14.2c-5.3,6.1-8.6,14.7-8.6,20.7
			c0,4,1.5,7.7,4,10.7c1.5,1.8,4,2.8,6.6,2.8h20.2 M52.9,354.6 M50.9,383.9h-23c-1.1,0-2.2-0.4-2.8-1c-1.9-2.3-2.9-4.9-2.9-7.6
			c0-6.4,4.7-16.2,10.7-20.7h12.7 M47.3,337.8c0.2,0.7,0.7,11.9,0,11.9l-33.7,0c-0.7,0-1.1-0.7-0.9-1.3c0,0,0,0,0-0.1l12.8-33h22.8"
			/>
	</g>
	<g id="Layer_5_1_">
		<path d="M48.1,399.7l-8,8c-0.2,0.2-0.6,0.2-0.8,0l-8-8c-0.2-0.2-0.2-0.6,0-0.8l0.3-0.3c0.2-0.2,0.6-0.2,0.8,0l6.4,6.5v-13.7
			c0-0.3,0.3-0.6,0.6-0.6h0.5c0.3,0,0.6,0.3,0.6,0.6V405l6.4-6.5c0.2-0.2,0.6-0.2,0.8,0l0.3,0.3C48.3,399.1,48.3,399.4,48.1,399.7z"
			/>
	</g>
	<g id="Layer_4_2_">
		<path d="M39.7,409.8c0,0-60-8-60.2-8c-1.5,0-2.8,0.9-3.5,2.2l-12.3,25.8c-1.1,2.3,0.1,5.1,2.4,5.7l12.4,3.7v53
			c0,3.7,2.4,6.9,5.7,7.8l51.6,13.6c3.2,0.9,5.9,0.4,7.4,0L94.9,500c3.4-0.9,5.7-4.1,5.7-7.8V466l-57.1-3 M-18.3,410.1l45.4,6.1
			l-14.3,25.1l-40.1-12.1L-18.3,410.1L-18.3,410.1z M-13.8,441.6c29.4,8.9,27.4,8.3,28.2,8.3c1.4,0,2.6-0.7,3.3-2l18-31.5v89
			l-49.6-13V441.6z M93.1,466.8v25.7l-49.6,13v-89V466"/>
	</g>
</g>
</svg>
