<?xml version="1.0" encoding="utf-8"?>
<!-- Generator: Adobe Illustrator 19.0.0, SVG Export Plug-In . SVG Version: 6.00 Build 0)  -->
<svg version="1.1" id="Layer_3" xmlns="http://www.w3.org/2000/svg" xmlns:xlink="http://www.w3.org/1999/xlink" x="0px" y="0px"
	 viewBox="-157.5 96.5 601 601" style="enable-background:new -157.5 96.5 601 601;" xml:space="preserve">
<path d="M435,590c-0.5-0.4-23.4-25-39.2-56.8c28.4-28,45.5-63.2,45.5-101.6c0-82.7-79.1-151.1-182.2-163.3
	C226.6,208.8,150,166.9,60.8,166.9c-118.8,0-215.1,74-215.1,165.5c0,38.3,17.1,73.4,45.5,101.6c-15.8,31.7-38.6,56.4-39,56.8
	c-6.5,6.9-8.4,17.1-4.6,25.9c3.7,8.8,12.4,14.5,21.9,14.5c55.3,0,100-20.9,129.5-40.1c9.4,2.2,19,3.8,29,5
	c32.6,59.5,109.1,101.3,198.3,101.3c21.5,0,42.2-2.5,61.8-7c29.5,19.1,74,40.1,129.5,40.1c9.5,0,18.1-5.7,21.9-14.5
	C443.3,607,441.5,596.9,435,590L435,590z M6.4,458.5l-13.7-3.1l-11.8,7.7c-20.8,13.5-52.2,29.2-90.7,33.6
	c9.1-11.7,20.9-28.5,30.5-48l10.8-21.5l-17.1-16.9c-16.3-16-35.7-42.6-35.7-78c0-73,81.7-132.4,182-132.4s182,59.4,182,132.4
	s-81.7,132.4-182,132.4C42.5,464.7,24.2,462.7,6.4,458.5z M306.1,562.3l-11.8-7.7l-13.7,3.2c-17.8,4.1-36.1,6.2-54.4,6.2
	c-67.3,0-126.2-26.8-157.6-66.5c115.1-3.3,207.2-75.9,207.2-165.3c0-9.8-1.3-19.3-3.4-28.6c78,15,135.8,66.6,135.8,127.9
	c0,35.4-19.3,61.9-35.7,78l-17.1,16.9l10.7,21.4c9.7,19.5,21.5,36.4,30.5,48C358.3,591.5,326.9,575.8,306.1,562.3L306.1,562.3z"/>
</svg>
