<?xml version="1.0" encoding="utf-8"?>
<!-- Generator: Adobe Illustrator 19.0.0, SVG Export Plug-In . SVG Version: 6.00 Build 0)  -->
<svg version="1.1" xmlns="http://www.w3.org/2000/svg" xmlns:xlink="http://www.w3.org/1999/xlink" x="0px" y="0px"
	 viewBox="-157.5 96.5 601 601" style="enable-background:new -157.5 96.5 601 601;" xml:space="preserve">
<style type="text/css">
	.st0{fill:none;stroke:#000000;stroke-width:30;stroke-linecap:round;stroke-miterlimit:10;}
</style>
<g id="Layer_1" focusable="false">
	<path d="M359,205H255l-33.6-44.8c-9.1-12.1-23.3-19.2-38.4-19.2h-80c-15.1,0-29.3,7.1-38.4,19.2L31,205H-73c-4.4,0-8,3.6-8,8v16
		c0,4.4,3.6,8,8,8h18.9l33.2,372.3c2.2,24.7,23,43.7,47.8,43.7h232.2c24.8,0,45.6-19,47.8-43.7L340.1,237H359c4.4,0,8-3.6,8-8v-16
		C367,208.6,363.4,205,359,205z M90.2,179.4c3-4,7.8-6.4,12.8-6.4h80c5,0,9.8,2.4,12.8,6.4L215,205H71L90.2,179.4z M275,606.4
		c-0.7,8.3-7.6,14.6-15.9,14.6H26.9c-8.3,0-15.2-6.3-15.9-14.6L-22,237h330L275,606.4z"/>
</g>
<g id="Layer_3">
	<g id="Layer_2">
		<line class="st0" x1="-70.8" y1="642.4" x2="349.2" y2="152.4"/>
	</g>
</g>
</svg>
